<svg width="33" height="33" viewBox="0 0 33 33" fill="none" xmlns="http://www.w3.org/2000/svg">
<path d="M20.3186 16.4999L31.9644 4.8811C32.4744 4.37111 32.7609 3.67942 32.7609 2.95818C32.7609 2.23695 32.4744 1.54526 31.9644 1.03527C31.4544 0.525279 30.7627 0.23877 30.0415 0.23877C29.3203 0.23877 28.6286 0.525279 28.1186 1.03527L16.4998 12.6811L4.88108 1.03527C4.3711 0.525279 3.6794 0.23877 2.95817 0.23877C2.23693 0.23877 1.54524 0.525279 1.03525 1.03527C0.525262 1.54526 0.238753 2.23695 0.238753 2.95818C0.238753 3.67942 0.525262 4.37111 1.03525 4.8811L12.6811 16.4999L1.03525 28.1186C0.781403 28.3704 0.57992 28.6699 0.442421 29C0.304923 29.33 0.234131 29.684 0.234131 30.0415C0.234131 30.3991 0.304923 30.753 0.442421 31.0831C0.57992 31.4131 0.781403 31.7127 1.03525 31.9644C1.28703 32.2183 1.58657 32.4198 1.91661 32.5573C2.24664 32.6948 2.60064 32.7656 2.95817 32.7656C3.3157 32.7656 3.66969 32.6948 3.99973 32.5573C4.32977 32.4198 4.62931 32.2183 4.88108 31.9644L16.4998 20.3186L28.1186 31.9644C28.3704 32.2183 28.6699 32.4198 28.9999 32.5573C29.33 32.6948 29.684 32.7656 30.0415 32.7656C30.399 32.7656 30.753 32.6948 31.0831 32.5573C31.4131 32.4198 31.7126 32.2183 31.9644 31.9644C32.2183 31.7127 32.4198 31.4131 32.5573 31.0831C32.6947 30.753 32.7655 30.3991 32.7655 30.0415C32.7655 29.684 32.6947 29.33 32.5573 29C32.4198 28.6699 32.2183 28.3704 31.9644 28.1186L20.3186 16.4999Z" fill="#303030"/>
</svg>
